HIERARCHY
ROOT Hips
{
  OFFSET -50.6425 87.6914 -62.501
  CHANNELS 6 Xposition Yposition Zposition Zrotation Xrotation Yrotation
  JOINT Spine
  {
    OFFSET 0 10 0
    CHANNELS 3 Zrotation Xrotation Yrotation
    JOINT Neck
    {
      OFFSET 0 30 0
      CHANNELS 3 Zrotation Xrotation Yrotation
      JOINT Head
      {
        OFFSET 0 8 0
        CHANNELS 3 Zrotation Xrotation Yrotation
        End Site
        {
          OFFSET 0 10 0
        }
      }
    }
    JOINT LeftArm
    {
      OFFSET 15 30 0
      CHANNELS 3 Zrotation Xrotation Yrotation
      JOINT LeftForeArm
      {
        OFFSET 25 0 0
        CHANNELS 3 Zrotation Xrotation Yrotation
        JOINT LeftHand
        {
          OFFSET 25 0 0
          CHANNELS 3 Zrotation Xrotation Yrotation
          End Site
          {
            OFFSET 10 0 0
          }
        }
      }
    }
    JOINT RightArm
    {
      OFFSET -15 30 0
      CHANNELS 3 Zrotation Xrotation Yrotation
      JOINT RightForeArm
      {
        OFFSET -25 0 0
        CHANNELS 3 Zrotation Xrotation Yrotation
        JOINT RightHand
        {
          OFFSET -25 0 0
          CHANNELS 3 Zrotation Xrotation Yrotation
          End Site
          {
            OFFSET -10 0 0
          }
        }
      }
    }
  }
  JOINT LeftUpLeg
  {
    OFFSET 10 -10 0
    CHANNELS 3 Zrotation Xrotation Yrotation
    JOINT LeftLeg
    {
      OFFSET 0 -35 0
      CHANNELS 3 Zrotation Xrotation Yrotation
      JOINT LeftToe
      {
        OFFSET 0 -40 0
        CHANNELS 3 Zrotation Xrotation Yrotation
        JOINT LeftToeEnd
        {
          OFFSET 0 0 0
          CHANNELS 3 Zrotation Xrotation Yrotation
          End Site
          {
            OFFSET 0 0 15
          }
        }
      }
    }
  }
  JOINT RightUpLeg
  {
    OFFSET -10 -10 0
    CHANNELS 3 Zrotation Xrotation Yrotation
    JOINT RightLeg
    {
      OFFSET 0 -35 0
      CHANNELS 3 Zrotation Xrotation Yrotation
      JOINT RightToe
      {
        OFFSET 0 -40 0
        CHANNELS 3 Zrotation Xrotation Yrotation
        JOINT RightToeEnd
        {
          OFFSET 0.0307635 -1.40019 0.446182
          CHANNELS 3 Zrotation Xrotation Yrotation
          End Site
          {
            OFFSET 0 0 15
          }
        }
      }
    }
  }
}
MOTION
Frames:	11
Frame Time:	0.0333333
-19.1516 91.4956 -204.911 -168.456 -13.5714 73.6252 21.6164 -4.35193 13.2751 -16.1472 -51.355 -5.61071 10.7686 0.308608 2.52202 -0.290703 -47.0285 -23.0064 16.6447 -28.2464 -73.0832 -10.6427 10.2816 0.893024 -9.83329 -46.9581 37.5555 -21.2763 -16.178 65.8374 4.26104 29.8286 0.328052 31.7239 -19.0891 21.0387 6.67337 63.4352 -3.31951 -5.48353 -18.1355 8.69314 -4.41391e-032 -3.97569e-016 -6.36111e-015 -125.112 -41.4941 -100.466 1.37507 57.5874 -7.54877 -3.74699 -11.5322 -32.9499 -1.59028e-015 -1.59028e-015 3.57812e-015 
-18.5313 92.4982 -210.125 -171.502 -7.85662 75.8354 18.7583 -9.61464 12.9766 -20.6835 -52.7663 -8.22502 14.2329 2.42727 1.76504 9.90031 -45.2858 -15.5664 5.31897 -30.3923 -69.7466 -25.275 7.74832 -15.1825 -15.8096 -47.1969 37.7974 -18.0971 -14.5604 59.6654 12.1235 23.5095 -6.41243 35.7498 -28.1298 25.8589 4.81887 55.8631 -1.22039 -6.00522 -17.8344 9.79157 -1.59028e-015 -7.95139e-016 6.36111e-015 -123.619 -41.6915 -99.4877 3.43328 67.9245 -8.75586 -3.98262 -18.4633 -31.4797 1.59028e-015 -6.36111e-015 5.56597e-015 
-17.754 93.2308 -215.296 -173.637 -4.60561 79.6118 17.1908 -12.4245 11.1429 -24.3295 -55.169 -10.4609 16.3178 4.05892 2.2014 4.23787 -46.8393 -21.4332 3.97519 -30.5299 -68.968 -27.1827 11.1583 -16.8951 -15.5851 -48.3474 44.2406 -19.9593 -9.23093 51.8846 12.111 22.8128 -17.9012 42.3914 -37.9991 23.434 3.08714 50.846 0.704926 -6.82965 -18.5361 16.4319 -3.18055e-015 1.59028e-015 3.18055e-015 -118.554 -42.6857 -95.9529 8.6742 78.5577 -13.2558 -3.88583 -24.7996 -29.7092 -3.18055e-015 3.18055e-015 7.15625e-015 
-16.9053 93.8914 -220.344 -173.962 -2.07897 83.9321 15.6935 -11.7053 9.23904 -33.0613 -58.8772 -16.854 18.9669 6.16575 1.92941 -2.52257 -48.9407 -26.9728 4.62095 -30.3139 -69.3285 -26.3708 13.9501 -17.8652 -15.4309 -51.1741 45.3968 -20.7999 -6.64814 50.7104 14.2783 23.7842 -25.2203 51.7473 -46.7034 23.0747 2.60973 46.6111 1.83009 -7.04488 -19.2665 21.1665 3.18055e-015 7.95139e-015 3.18055e-015 -110.61 -43.21 -91.6449 41.4086 87.0646 -45.5893 -3.44972 -28.848 -27.8475 -1.59028e-015 -6.36111e-015 4.77083e-015 
-15.7626 94.019 -225.214 -171.996 1.92369 87.349 12.2345 -7.30768 7.41928 -37.9397 -61.5901 -21.7793 19.1556 6.45861 0.755443 7.70926 -51.6609 -21.424 -4.30049 -33.5335 -65.7374 -41.6154 7.52825 -17.4537 -17.7105 -56.2728 42.6343 -19.855 -3.89146 51.3198 16.912 24.51 -31.9278 61.224 -52.2439 25.793 2.75555 41.8967 2.44263 -6.9279 -19.1012 23.5054 -0 0 3.18055e-015 -100.858 -42.1861 -86.6358 155.075 85.53 -159.616 -3.15909 -28.4073 -27.5845 4.77083e-015 6.36111e-015 3.18055e-015 
-14.7274 93.7801 -229.646 -168.514 8.20782 88.4845 6.76944 -1.53233 7.2182 -41.2536 -63.9462 -25.1653 20.6498 8.2786 1.25941 13.6598 -54.2547 -19.4125 -6.57649 -34.6684 -60.415 -50.3958 0.111679 -15.2753 -22.4241 -60.6376 37.6304 -18.3632 -2.13214 51.8798 18.0349 23.9371 -35.3769 70.2351 -52.982 31.6929 2.90148 37.8216 2.85973 -6.04616 -19.5121 26.827 -2.65524e-032 -1.09332e-015 -1.39149e-015 -91.0878 -39.7896 -79.2504 167.522 82.8012 -172.578 -2.82447 -28.9274 -26.8963 -3.97569e-016 -6.36111e-015 6.36111e-015 
-14.3331 93.316 -234.467 -164.362 13.6578 88.617 3.4216 3.66421 7.46215 -37.8839 -65.1512 -22.8231 19.7335 8.67305 2.32124 16.8571 -54.7559 -18.319 -4.82966 -33.9554 -54.6873 -55.6586 -5.71269 -18.1145 -31.5963 -62.5005 30.8934 -16.1411 -1.09187 48.8078 16.0243 23.6544 -32.2001 79.3149 -51.4518 35.2354 3.26928 34.0834 3.18607 -4.28244 -19.0728 32.9551 6.36111e-015 0 -2.38542e-015 -78.9486 -35.4101 -69.1429 171.362 84.8529 -177.093 -1.97702 -28.9465 -27.0335 2.5842e-015 -1.59028e-015 2.38542e-015 
-14.4527 92.5337 -239.377 -160.68 18.7109 87.8684 0.941419 7.04816 7.78819 -34.6923 -65.403 -20.4139 19.6835 8.37211 2.91302 18.7631 -53.4561 -17.3385 -2.48037 -32.9336 -50.5929 -60.2458 -7.77718 -24.4142 -44.1178 -61.9233 24.5929 -12.3991 -1.08106 39.229 10.0871 24.9456 -11.3691 86.7046 -47.0135 35.7343 3.73049 25.6761 3.54165 -2.23216 -15.6284 41.5894 0 0 -3.18055e-015 -66.0483 -30.6505 -58.0118 -13.4211 87.7094 7.06402 -0.465816 -29.1012 -28.252 9.44227e-016 1.19271e-015 2.38542e-015 
-15.1573 91.7083 -244.755 -158.508 22.5206 86.9289 0.28865 7.55655 7.96024 -27.22 -64.3142 -13.6291 18.9107 8.1437 3.58319 17.8168 -52.4446 -17.9575 -1.81746 -32.143 -49.4224 -63.3933 -8.17862 -27.6144 -54.5525 -60.4473 21.9523 -9.45206 -0.512087 25.0899 3.10628 27.7099 1.1558 90.9596 -36.8305 32.8255 3.92489 6.65 3.93444 5.8839 -14.5583 48.8075 3.18055e-015 0 -0 -53.1354 -27.0263 -47.1638 -10.0801 78.1303 3.02822 0.918405 -29.0449 -31.8071 2.21148e-015 5.96354e-016 1.59028e-015 
-16.0492 90.511 -250.105 -156.255 28.4783 87.1311 -2.93261 7.7914 6.93081 -21.868 -60.753 -9.46559 19.3401 7.00174 3.7136 17.8729 -51.6658 -18.3975 -1.42996 -31.3626 -48.73 -66.1762 -8.1829 -30.7398 -62.7542 -56.7201 12.3469 -9.48947 -0.701648 23.4964 1.70613 21.9362 3.05664 96.0536 -34.1604 37.7073 5.12642 0.155846 5.26866 3.50555 -14.5789 50.4327 -3.18055e-015 -3.18055e-015 -3.18055e-015 -44.7048 -24.0193 -34.8909 -7.45301 71.1232 0.376795 2.74863 -27.4048 -33.2736 -5.96354e-016 0 6.36111e-015 
-16.9992 88.6831 -255.564 -154.155 34.2001 88.9032 -5.45275 8.14858 4.71303 -15.4341 -58.3035 -5.35021 18.368 7.32803 4.02418 17.3267 -51.7318 -20.4593 -0.160381 -29.6073 -46.4002 -70.8885 -10.3545 -36.1625 -65.3531 -56.4797 4.14865 -9.93981 -1.0664 23.3355 1.81223 18.7442 3.45232 103.395 -36.6054 47.6647 4.86471 0.128023 5.36766 2.15473 -14.2222 46.5929 -1.59028e-015 0 9.54166e-015 -38.3311 -21.908 -27.7983 -6.16651 69.8596 -0.85441 2.99391 -25.5295 -34.5365 3.97569e-015 -3.18055e-015 3.18055e-015 
